<?xml version="1.0" encoding="utf-8"?>
<!-- Generator: Adobe Illustrator 14.0.0, SVG Export Plug-In . SVG Version: 6.00 Build 43363)  -->
<!DOCTYPE svg PUBLIC "-//W3C//DTD SVG 1.1//EN" "http://www.w3.org/Graphics/SVG/1.1/DTD/svg11.dtd">
<svg version="1.1" id="Layer_1" xmlns="http://www.w3.org/2000/svg" xmlns:xlink="http://www.w3.org/1999/xlink" x="0px" y="0px"
	 width="800px" height="600px" viewBox="0 0 800 600" enable-background="new 0 0 800 600" xml:space="preserve">
<ellipse fill="#FFFFFF" stroke="#000000" cx="276.5" cy="162.5" rx="56.5" ry="59.5"/>
<path fill="#FFFFFF" stroke="#000000" d="M242.739,184.589c1.081,0.112,2.186,0.226,3.307,0.331
	c-0.042-0.293-0.064-0.597-0.046-0.92c0.007-0.129,0.024-0.253,0.033-0.382C244.925,183.926,243.829,184.253,242.739,184.589z"/>
<path fill="#FFFFFF" stroke="#000000" d="M325.585,187.117c-0.709,0.461-1.57,0.783-2.585,0.883
	c-8.323,0.826-16.387-2.126-24.329-4.179c-1.837-0.475-2.898-1.647-3.329-3.021c-3.235,0.477-6.355,1.216-8.905,1.777
	c-2.872,0.633-5.757,1.224-8.651,1.786C268.48,198.823,249.559,194.151,235,194c-3.085-0.032-4.69-2.34-4.823-4.73
	C200.179,202.505,180,227.208,180,255.5c0,42.25,44.996,76.5,100.5,76.5S381,297.75,381,255.5
	C381,225.591,358.448,199.695,325.585,187.117z"/>
<ellipse fill="#FFFFFF" stroke="#FFFFFF" cx="277.077" cy="190.46" rx="51.923" ry="12.54"/>
<ellipse fill="#FFFFFF" stroke="#FFFFFF" cx="313.795" cy="202.143" rx="3.205" ry="4.683"/>
<ellipse stroke="#000000" cx="250.023" cy="156.25" rx="3.977" ry="6.25"/>
<ellipse stroke="#000000" cx="284.75" cy="156.25" rx="4.25" ry="6.25"/>
<ellipse fill="#FFFFFF" stroke="#000000" cx="230" cy="269" rx="24" ry="22"/>
<ellipse fill="#FFFFFF" stroke="#000000" cx="511.5" cy="236.041" rx="56.5" ry="59.5"/>
<path fill="#FFFFFF" stroke="#000000" d="M469.244,212.727c0.587-0.337,1.288-0.558,2.104-0.597
	c6.691-0.319,13.023,2.351,19.295,4.302c1.451,0.451,2.252,1.425,2.542,2.533c2.607-0.248,5.134-0.708,7.194-1.051
	c2.323-0.387,4.655-0.739,6.994-1.068c8.023-11.104,22.973-6.63,34.613-5.922c2.466,0.149,3.658,2.047,3.669,3.95
	c24.528-9.295,41.662-28.092,42.797-50.556c1.695-33.545-32.927-62.557-77.329-64.801c-44.401-2.244-81.771,23.131-83.466,56.676
	C426.457,179.94,443.459,201.412,469.244,212.727z"/>
<ellipse fill="#FFFFFF" stroke="#FFFFFF" cx="510.923" cy="208.081" rx="51.923" ry="12.54"/>
<line stroke="#000000" x1="482" y1="247" x2="502" y2="269"/>
<ellipse stroke="#000000" cx="526" cy="180.8" rx="4.25" ry="6.25"/>
<ellipse stroke="#000000" cx="496.25" cy="177.92" rx="4.25" ry="6.25"/>
</svg>
